<svg xmlns="http://www.w3.org/2000/svg" viewBox="0 0 128 128">
  <path stroke="#fff" fill="#fff" d="M67.025 4.844c-.043.073-.078.15-.115.226l.035-.02c.003-.002.008-.01.01-.013.04-.063.077-.128.117-.191a59.321 59.321 0 00-.047-.002zM44.533 10.035a19.723 19.723 0 00-8.158 1.643 19.771 19.771 0 00-9.229 27.99 19.614 19.614 0 007.721 7.48 19.487 19.487 0 017.756 7.329 19.1 19.1 0 010 19.046 19.487 19.487 0 01-7.756 7.329 19.685 19.685 0 00-9.373 23.52 19.825 19.825 0 0010.881 11.95A19.723 19.723 0 0063.965 97.4a18.551 18.551 0 012.472-10.117l.014-.025a19.105 19.105 0 0116.49-9.5 18.545 18.545 0 0110 2.918 19.724 19.724 0 0030.188-14.432 19.825 19.825 0 00-4.914-15.404 19.688 19.688 0 00-25.057-3.64 19.491 19.491 0 01-10.22 3.05 19.071 19.071 0 01-16.452-9.438 1.636 1.636 0 00-.049-.091 18.551 18.551 0 01-2.472-10.116 19.723 19.723 0 00-19.432-20.57zm-.625 3.528a15.778 15.778 0 01.002 0 15.778 15.778 0 01.215 0 16.447 16.447 0 0113.51 7.007 16.066 16.066 0 012.834 9.875 21.93 21.93 0 002.888 11.934l.051.094a22.614 22.614 0 0019.53 11.277A22.979 22.979 0 0095 50.17a16.246 16.246 0 0124.645 15.684h.002a16.418 16.418 0 01-14.856 14.345 16.046 16.046 0 01-9.969-2.48 22.031 22.031 0 00-11.885-3.469 22.614 22.614 0 00-19.529 11.273l-.015.03a22.036 22.036 0 00-2.924 12 16.066 16.066 0 01-2.834 9.875 16.417 16.417 0 01-19.856 5.691 16.114 16.114 0 01-8.959-9.838 16.277 16.277 0 011.358-13.199 16.1 16.1 0 016.343-6.148 22.98 22.98 0 009.133-8.66 22.61 22.61 0 000-22.55 22.98 22.98 0 00-9.133-8.66 16.1 16.1 0 01-6.343-6.148 16.277 16.277 0 01-1.358-13.2 16.114 16.114 0 018.96-9.837 15.778 15.778 0 016.128-1.316z"/>
  <path stroke="#fff" fill="#fff" d="M44.9 16.064A13.745 13.745 0 1051.125 41.7a13.768 13.768 0 005.033-18.781A13.745 13.745 0 0044.9 16.064zm-.44 3.48a10.249 10.249 0 01.003 0 10.249 10.249 0 014.916 19.126 10.177 10.177 0 01-7.78 1.021 10.249 10.249 0 012.862-20.146zM103.5 50.25A13.75 13.75 0 10117.25 64a13.765 13.765 0 00-13.75-13.75zm-.426 3.51A10.25 10.25 0 01113.75 64a10.261 10.261 0 01-10.25 10.25 10.25 10.25 0 01-.426-20.49zM64.09 56.25A7.75 7.75 0 1071.84 64a7.759 7.759 0 00-7.75-7.75zm-.178 3.504A4.25 4.25 0 0168.34 64a4.255 4.255 0 01-4.25 4.25 4.25 4.25 0 01-.178-8.496z"/>
  <path stroke="#fff" fill="#fff" d="M44.066 25.057a4.75 4.75 0 00-1.045 9.32 4.8 4.8 0 001.237.162 4.751 4.751 0 001.22-9.34 4.75 4.75 0 00-1.412-.142zm.182 3.48a1.25 1.25 0 011.209 1.574 1.25 1.25 0 11-1.209-1.574zm.326 55.926a13.748 13.748 0 1011.584 20.619 13.765 13.765 0 00-5.033-18.781 13.748 13.748 0 00-6.55-1.838zm-.228 3.492a10.257 10.257 0 015.027 1.377 10.26 10.26 0 013.754 14h-.002a10.257 10.257 0 11-8.78-15.377z"/>
  <path stroke="#fff" fill="#fff" d="M103.5 59.25a4.75 4.75 0 104.75 4.75 4.756 4.756 0 00-4.75-4.75zm-.053 3.502A1.25 1.25 0 01104.75 64a1.252 1.252 0 01-1.25 1.25 1.25 1.25 0 01-.053-2.498zM44.363 93.465a4.749 4.749 0 00-4.226 2.373 4.754 4.754 0 004.107 7.127 4.8 4.8 0 001.236-.164 4.749 4.749 0 001.147-8.7l-.002-.001a4.749 4.749 0 00-2.262-.635zm-.1 3.5a1.249 1.249 0 01.003 0 1.249 1.249 0 011.191.926 1.242 1.242 0 01-.125.941v.006a1.249 1.249 0 11-1.068-1.873z"/>
</svg>